<svg width="323" height="257" viewBox="0 0 323 257" fill="none" xmlns="http://www.w3.org/2000/svg">
<path d="M318.268 169.024L266.217 30.6456V30.551C259.309 12.2961 241.611 0 222.116 0C202.62 0 184.923 12.2961 178.014 30.551C176.027 35.8477 174.986 41.4283 174.986 47.1034V107.638H148.109V47.1034C148.109 21.1871 127.004 0 100.979 0C81.4834 0 63.6915 12.2961 56.8775 30.551V30.6456L4.73191 168.929C1.60885 177.347 0 186.049 0 195.034C0 235.801 33.218 269 74.007 269C114.796 269 148.014 235.801 148.014 195.034V188.319H174.891V195.034C174.891 235.801 208.109 269 248.898 269C289.687 269 322.905 235.801 322.905 195.034C323 186.049 321.391 177.347 318.268 169.024ZM74.007 242.138C48.0762 242.138 26.8772 221.045 26.8772 195.034C26.8772 189.359 27.9183 183.779 29.9057 178.482C36.8142 160.227 54.5116 147.931 74.007 147.931C99.9379 147.931 121.137 169.024 121.137 195.034C121.137 221.045 100.033 242.138 74.007 242.138ZM248.993 242.138C223.062 242.138 201.863 221.045 201.863 195.034C201.863 169.024 222.967 147.931 248.993 147.931C268.488 147.931 286.28 160.227 293.094 178.482C295.082 183.779 296.123 189.359 296.123 195.034C296.123 221.045 274.924 242.138 248.993 242.138Z" fill="#00AFEF" fill-opacity="0.1"/>
</svg>
