<svg width="299" height="229" viewBox="0 0 299 229" fill="none" xmlns="http://www.w3.org/2000/svg">
<path d="M149.544 228.13L110.747 83.3721H188.253L149.544 228.13ZM170.971 228.13L209.68 83.3721H299L170.971 228.13ZM128.029 227.603L0 82.8447H89.3213L128.029 227.603ZM90.0264 62.0889H0L59.165 3.07812C61.1048 1.14339 63.7501 0.0879513 66.4834 0.0878906H125.561L90.0264 62.0889ZM191.074 62.0889H103.605L149.544 0.0878906L191.074 62.0889ZM232.517 0C235.25 4.4293e-05 237.895 1.05548 239.835 2.99023L299 62.001H208.974V62.0889L173.439 0H232.517Z" fill="#F58634" fill-opacity="0.1"/>
</svg>
