<svg width="661" height="362" viewBox="0 0 661 362" fill="none" xmlns="http://www.w3.org/2000/svg">
<path d="M59.8026 78.6705C61.4426 80.0881 70.921 73.1977 68.1507 76.7278C58.385 81.972 68.614 78.2134 71.1959 75.6839C72.8513 70.2575 75.1152 81.3296 78.043 76.4529C78.0214 78.7013 80.9863 77.642 80.7701 76.3325C85.3379 76.2862 90.6964 79.2449 95.3754 79.0689C99.9741 81.2648 93.3988 81.4346 94.5446 82.2345C97.1606 83.3062 102.68 82.531 105.135 82.1604C106.525 81.6169 108.653 86.5398 109.573 86.5182C109.712 83.0375 106.296 78.1856 112.464 78.2999C123.348 88.0841 130.494 72.5244 129.793 81.5613C133.144 84.8721 131.251 82.4662 131.828 79.9923C137.514 79.4148 131.566 74.9983 135.649 74.4887C126.692 73.5375 132.576 63.4969 132.094 56.554C131.059 55.1766 142.616 51.6743 139.046 54.9357C138.984 57.7616 136.097 60.6771 133.669 59.6672C134.608 63.4567 133.042 63.4598 136.214 66.5915C139.142 69.9579 135.198 74.0038 140.464 73.4386C140.22 79.6526 141.6 78.6766 143.565 73.7629C147.669 74.8809 143.629 78.4512 145.038 80.366C146.687 81.7033 150.443 82.7071 148.565 79.3932C151.073 79.7298 148.889 76.7278 150.035 76.1534C152.41 74.7697 151.048 75.5233 150.412 72.9167C149.698 69.7541 158.565 72.8456 157.71 75.3071C154.631 77.5771 160.205 84.5231 152.552 84.5478C150.594 84.8072 148.556 83.4452 147.709 85.1439C152.987 88.3188 140.726 87.0865 139.337 86.9135C152.682 90.8081 146.221 94.5575 136.501 94.1405C144.797 95.833 131.452 99.1902 132.199 108.561C138.222 109.289 137.175 116.152 143.858 114.685C147.203 117.903 153.772 118.453 156.138 120.76C155.745 123.24 155.854 127.147 159.924 127.07C161.468 129.272 161.527 131.403 163.25 128.432C160.848 116.733 163.995 122.029 166.487 114.361C167.432 110.945 162.877 108.838 164.455 106.065C165.795 103.962 164.124 104.524 164.134 102.13C164.257 101.09 164.436 98.0814 163.436 97.4452C165.385 97.5718 171.592 96.4878 173.625 98.418C175.888 101.401 180.54 99.7584 179.162 103.347C177.85 108.184 184.224 110.769 186.516 107.06C188.776 99.8665 190.929 105.132 193.548 110.469C195.673 112.177 192.412 113.799 194.215 114.876C196.05 115.534 196.041 117.094 196.17 118.141C201.915 117.962 202.356 120.13 197.585 122.848C200.3 123.231 208.512 119.037 203.765 128.305C193.9 133.898 182.235 130.853 176.142 142.676C179.131 141.045 183.742 135.563 187.452 135.226C190.972 136.403 187.918 139.445 185.901 138.936C188.221 140.819 187.158 141.27 189.187 144.019C193.02 146.688 194.57 145.832 195.741 142.249C199.144 142.734 192.875 149.328 190.206 148.998C187.007 150.903 183.727 153.044 187.825 148.074C189.237 147.821 192.424 146.7 189.243 146.505C187.912 144.143 183.616 150.106 180.873 149.442C176.132 153.244 179.054 158.424 171.725 159.505C170.734 160.536 170.443 166.704 169.4 162.893C168.263 161.228 168.791 161.574 168.893 163.415C170.694 168.853 166.913 169.258 167.902 163.291C166.286 161.194 166.394 172.405 167.636 172.507C167.828 173.372 165.53 173.239 167.21 174.252C165.527 175.036 163.982 176.652 162.37 177.764C151.857 180.59 164.662 197.548 157.558 195.025C155.616 185.441 152.459 184.577 143.058 185.238C139.828 185.997 144.278 186.6 143.679 187.752C142.965 187.934 142.048 186.955 140.788 187.678C127.174 179.925 121.615 206.65 134.531 209.646C140.266 209.114 139.593 208.274 142.017 203.515C152.561 201.109 144.571 207.064 145.121 211.737C140.563 215.94 149.72 213.639 152.852 214.949C157.209 218.284 149.621 223.992 155.313 226.453C158.019 229.786 164.288 224.674 166.008 229.193C166.651 225.384 169.928 222.892 174.193 222.12C190.067 220.937 203.369 232.42 214.627 240.598C218.96 249.159 232.157 249.11 239.449 254.845C248.229 255.373 239.344 267.403 235.811 268.99C235.585 271.968 234.52 279.451 234.686 282.691C229.498 284.26 223.241 290.835 219.17 294.742C217.511 301.679 208.262 314.699 202.288 314.023C205.491 320.629 195.364 317.479 194.299 321.54C188.069 321.877 195.568 329.144 192.304 327.782C188.721 325.138 184.113 335.658 186.062 340.572C179.369 346.6 176.833 359.402 190.559 360.294C180.154 365.665 164.989 353.994 169.054 339.821C169.776 319.768 180.018 299.152 177.664 279.998C170.048 272.953 165.15 268.441 160.604 257.98C154.084 250.889 160.807 243.718 165.094 237.609C166.24 233.51 163.297 223.877 159.371 230.487C152.293 228.371 151.573 225.082 146.27 219.875C136.999 214.664 128.215 212.055 118.446 208.87C110.076 202.499 104.758 187.61 95.5576 180.923C95.2519 184.178 109.292 202.548 101.117 195.819C102.028 193.129 94.3068 190.025 94.9647 188.743C99.2391 191.501 90.4741 175.651 86.6752 175.991C78.2221 168.684 78.8738 154.01 79.8837 143.615C77.2307 139.146 77.8268 138.142 82.4472 140.328C81.7584 136.208 75.3684 134.939 72.5517 132.959C68.9166 127.017 65.8869 122.366 59.9817 119.311C55.8061 109.96 44.8915 110.775 37.5719 106.76C34.5637 106.334 31.6143 115.139 27.9915 113.332C28.3405 111.912 28.3961 109.255 30.7742 108.551C32.2752 107.804 32.2165 107.754 31.6328 107.804C29.5048 107.847 34.1777 106.006 33.3963 105.611C26.7129 106.43 23.8746 117.773 17.8861 120.803C15.3041 123.082 -2.30007 131.017 6.86647 124.837C10.0568 123.87 21.2587 117.267 17.568 114.775C11.4466 116.643 -2.29389 110.519 5.68977 103.968C10.9093 101.747 13.2627 102.371 10.4522 97.439C1.40608 103.48 -2.99806 91.9477 7.67256 95.1474C17.2406 92.0651 4.0745 91.6142 3.76875 86.8302C8.9172 80.5359 20.675 71.9098 27.9452 78.1115C37.0469 76.944 53.357 83.1827 59.8026 78.6705ZM188.418 20.8916C184.9 29.9748 161.051 28.5325 180.024 38.922C195.077 39.2834 208.506 43.2119 205.751 61.091C207.119 62.663 207.128 65.7453 207.891 67.515C212.184 62.7834 218.945 70.869 209.713 74.8871C206.421 84.0845 218.166 106.408 229.072 101.985C231.11 99.7708 231.833 86.5337 235.332 84.9987C243.096 83.0314 243.652 81.7774 247.794 75.9804C254.885 72.2156 271.427 71.0234 265.877 59.9946C265.364 54.0462 271.39 49.5926 272.992 45.451C271.859 40.633 268.042 32.39 273.792 29.808C263.934 22.4729 279.151 13.5627 284.97 9.9832C286.94 5.33199 267.304 10.0573 264.536 11.478C264.861 9.97703 265.21 5.44626 268.125 4.45178C260.605 1.60114 241.719 -3.49791 234.958 3.60554C227.052 3.05271 213.364 1.82351 225.758 10.1284C218.271 1.97484 175.827 16.6852 188.418 20.8916ZM109.15 62.07C110.123 69.7448 107.772 61.8168 105.157 62.8977C101.302 64.4728 103.109 63.2714 101.231 61.8693C97.3057 62.2337 96.7868 65.1893 96.9536 60.5072C91.6477 60.9304 85.6437 66.7675 91.7805 69.5719C86.5826 71.0543 90.8755 72.1909 93.6366 71.7307C111.883 72.6264 94.8689 72.7159 90.6408 74.9828C96.4626 79.2604 104.635 81.552 110.932 75.2824C112.637 76.6259 120.827 79.8688 119.885 75.2485C120.027 74.5844 118.452 75.3813 117.887 75.7148C116.037 73.0093 125.692 75.2855 120.346 71.8295C115.416 72.2465 110.731 52.5236 109.15 62.07ZM79.5502 59.2472C80.2543 61.7334 76.4339 65.4889 76.3042 67.5798C79.0746 70.1834 84.7481 72.231 86.1811 67.2463C85.1372 63.9169 97.664 60.5598 93.4575 57.8512C91.0886 56.4305 75.4024 53.2185 79.5502 59.2472ZM125.979 75.1527C121.074 76.9811 131.269 79.4395 132.539 76.7155C131.603 75.7519 126.495 70.3563 125.979 75.1527ZM119.237 59.6116C116.828 60.9736 124.212 65.9275 126.371 65.526C132.143 63.9601 129.784 58.6233 125.587 59.6795C133.688 54.9573 121.915 54.2747 119.669 57.4188C120.207 58.3021 124.586 57.8944 122.307 60.5443C120.46 62.7495 120.939 58.5121 119.237 59.6116ZM112.393 56.5571C107.609 56.7393 115.018 61.2516 115.027 58.7499C115.423 57.0575 114.854 56.3224 112.393 56.5571ZM86.6444 43.703C84.2076 45.6055 79.2383 50.9454 85.0044 48.9533C86.6258 49.4043 91.8824 41.8746 90.7458 45.9637C96.1908 47.125 97.1791 34.5519 86.6444 43.703ZM97.5219 45.9637C89.8903 45.6271 90.8817 56.9154 97.4879 50.581C99.0044 48.7649 97.315 53.6601 100.02 51.3747C107.291 49.5093 97.3767 53.9196 95.99 53.7003C99.0291 56.3193 110.021 51.2697 113.112 49.3548C115.274 43.5794 110.49 46.4795 110.614 48.3573C109.91 47.5388 107.982 44.2805 107.084 43.1069C101.809 44.2651 107.201 47.0416 107.195 49.117C103.307 51.0504 100.691 45.8186 97.5219 45.9637ZM90.925 47.6932C91.1504 47.3072 88.2195 49.4197 87.7716 50.0992C88.2596 51.9491 90.471 49.7162 90.925 47.6932ZM96.5614 43.2891C94.6188 44.2249 99.6004 44.2682 98.6646 43.1069C98.4175 42.6096 97.1482 43.0266 96.5614 43.2891ZM102.639 36.9825C100.672 37.5075 98.3527 37.9337 99.7857 40.2686C100.116 41.8592 109.051 38.8078 103.319 38.2117C103.127 37.7515 110.12 36.0529 102.639 36.9825ZM95.885 38.0295C94.0814 38.5452 99.2453 39.549 98.5751 38.7923C98.4176 38.4217 97.4694 37.2944 95.885 38.0295ZM100.481 34.7557C95.9622 37.9183 103.418 34.8669 105.583 35.3178C109.292 32.847 104.48 32.7822 100.481 34.7557ZM112.569 37.7608C111.463 38.7306 115.16 41.3897 115.441 40.2192C115.62 39.5583 113.446 37.1585 112.569 37.7608ZM116.689 42.9772C114.144 42.3595 114.589 45.5529 116.704 45.7321C119.62 46.1089 118.703 43.2644 116.689 42.9772ZM121.952 44.5368C121.105 43.4126 118.808 43.3787 119.703 44.787C120.389 44.7654 121.853 46.1058 119.848 46.1799C115.818 45.9977 119.246 47.7581 121.488 47.5265C127.847 45.2812 118.598 51.8009 125.627 49.849C129.784 50.2412 125.963 45.4943 128.369 47.3072C128.796 42.3749 124.215 40.7751 122.146 43.1903C124.311 44.8179 124.243 46.9953 121.952 44.5368ZM115.441 49.2684C114.87 49.5 114.654 50.1517 114.62 50.581C114.944 51.7021 119.604 48.6816 115.441 49.2684ZM132.273 47.0107C126.995 49.0028 132.523 52.1684 135.09 50.513C135.785 49.7347 134.769 45.6456 132.273 47.0107ZM139.154 41.2168C129.108 39.6478 125.42 40.6547 137.017 44.1292C135.689 54.8214 154.056 52.2178 160.715 48.1411C162.679 39.7559 148.37 47.7488 144.318 46.3714C136.906 43.947 147.061 43.005 139.154 41.2168ZM116.476 31.9514C119.953 32.6247 112.933 33.8292 115.62 34.0917C118.363 32.6061 125.605 38.885 125.306 35.0368C123.212 27.8098 105.641 29.6289 116.476 31.9514ZM131.884 19.7458C126.14 24.4403 138.29 23.0443 130.704 24.3538C124.611 28.6591 142.647 25.9073 138.836 28.3379C128.305 30.5431 141.906 34.3449 144.933 32.4733C146.224 30.7222 146.434 28.6189 149.077 28.1402C151.829 28.1032 135.322 11.5768 131.884 19.7458ZM129.151 34.3171C125.247 36.8837 133.271 35.5803 133.487 33.8415C132.097 32.9551 122.313 26.8184 129.151 34.3171ZM194.586 8.40809C182.655 4.24794 138.864 7.27463 160.996 14.0507C157.348 12.0216 141.498 11.3823 139.102 15.7771C148.148 23.0505 154.112 19.3906 164.918 15.8451C158.973 24.1932 140.476 17.3399 154.72 29.5887C151.801 26.6053 140.668 32.9459 151.008 34.6353C154.597 34.6723 157.098 33.1744 151.579 36.0343C150.85 35.4105 143.395 33.6593 146.159 36.5655C149.899 38.8232 137.008 41.5935 147.441 41.8128C148.96 41.8746 155.535 41.7078 156.925 40.6145C160.795 40.9264 156.082 44.1137 162.203 41.2785C167.682 37.3809 158.902 37.7392 163.343 32.4486C163.828 32.2664 173.55 28.2051 168.476 25.4718C168.43 25.2216 175.487 24.1407 176.608 21.9541C177.606 20.6909 177.964 20.2276 175.542 20.4932C172.908 21.3302 195.886 11.3081 186.735 12.9234C171.975 12.9975 193.063 11.7313 194.586 8.40809ZM154.652 54.4971C143.385 49.7965 135.871 71.2643 149.3 70.7022C160.301 71.0667 162.633 64.4605 170.199 75.687C182.973 83.7726 168.841 88.3311 163.494 89.829C163.402 94.471 171.907 89.2793 173.195 91.293C174.638 93.6093 179.542 93.492 175.122 94.749C173.467 94.6131 189.234 100.484 185.463 97.473C179.063 92.4789 182.476 92.2411 186.889 95.9442C193.199 93.1152 181.719 87.7135 181.537 84.5879C182.618 81.0084 185.342 81.5705 187.745 85.252C191.377 92.2782 198.292 78.1115 187.748 78.0836C170.743 71.6967 191.584 76.7927 182.183 68.1852C165.147 51.9399 160.801 66.3599 154.652 54.4971ZM157.858 54.4971C155.063 57.2613 164.844 59.031 165.916 56.9524C166.419 56.8227 160.641 54.1636 157.858 54.4971ZM149.853 87.4386C146.696 96.846 148.741 95.1412 156.215 93.8132C164.399 96.4414 150.557 85.7739 149.853 87.4386ZM163.312 203.815C162.469 196.931 143.16 202.465 158.519 201.387C155.505 201.949 164.918 205.201 162.114 207.929C168.81 212.694 166.685 207.861 163.312 203.815ZM168.492 211.11C172.454 216.706 162.447 211.116 166.28 213.818C170.978 217.169 168.371 214.386 174.248 215.369C184.694 217.039 167.84 208.447 168.492 211.11ZM160.616 211.801C159.575 210.649 158.275 210.483 158.263 211.462C157.759 212.852 161.842 213.281 160.616 211.801ZM180.706 216.799C179.576 216.409 179.341 217.262 180.095 217.972C182.05 219.115 185.91 218.327 180.706 216.799ZM167.692 77.8026C163.763 77.9786 168.464 84.1648 169.214 82.1388C169.724 80.8911 170.233 76.7278 167.692 77.8026ZM155.687 96.2407C151.61 96.0646 152.533 100.154 155.542 98.2327C157.077 97.4699 158.145 95.8423 155.687 96.2407ZM160.391 98.1648C160.004 98.2822 159.893 99.1624 160.391 99.9561C161.583 101.182 164.044 96.5588 160.391 98.1648ZM135.714 36.8651C127.971 37.5847 134.117 38.1129 138.283 37.9615C144.204 36.9825 141.949 35.0831 135.714 36.8651ZM122.344 25.1444C120.16 25.8208 120.701 26.2717 123.267 27.4021C127.851 29.8729 125.547 22.3834 122.344 25.1444ZM274.775 80.7274C267.3 80.6965 267.393 91.4999 264.382 81.972C258.891 78.5068 263.292 83.822 259.079 84.8875C259.604 85.1068 265.849 85.1346 262.365 88.115C271.89 97.4699 297.743 77.9972 274.775 80.7274ZM455.313 227.04C455.042 228.708 453.84 234.637 457.274 233.3C460.276 232.63 456.601 226.302 455.313 227.04ZM454.662 225.808C455.221 227.287 455.326 225.091 454.64 225.872L454.662 225.808ZM531.66 278.815C519.859 282.113 513.049 288.13 519.683 299.937C523.716 304.807 516.264 313.495 525.508 311.688C535.752 308.628 548.924 296.268 558.029 307.454C566.281 300.876 558.137 310.895 562.47 307.454C563.999 315.873 575.133 317.822 581.245 314.326C586.776 311.657 591.227 297.534 590.019 290.665C590.14 286.598 586.434 287.632 585.578 284.89C585.547 281.394 584.213 284.099 582.904 282.2C582.891 278.358 576.396 279.513 577.338 275.973C578.015 272.69 575.105 273.688 575.578 270.908C575.942 267.353 573.447 269.747 572.403 267.088C567.23 255.695 570.3 271.937 566.949 275.059C547.643 269.985 567.622 263.845 554.681 263.768C550.299 263.014 553.257 265.902 551.546 265.797C547.287 264.151 547.213 268.468 546.268 270.476C540.354 266.986 534.263 272.119 531.66 278.815ZM484.073 233.918C481.689 234.36 487.134 237.46 487.782 238.066C491.402 243.152 492.94 248.075 497.693 252.479C505.862 260.543 503.524 247.905 498.867 244.876C498.456 241.982 488.153 234.983 484.073 233.918ZM504.824 255.336C495.334 256.967 521.604 261.856 517.7 258.459C513.611 255.673 508.833 256.742 504.824 255.336ZM522.941 258.99C517.042 261.016 531.475 259.654 526.289 258.922C525.847 258.808 523.117 259.583 522.941 258.99ZM529.575 258.854C527.311 261.041 536.864 258.678 538.454 258.721C535.385 258.107 532.762 259.648 529.575 258.854ZM536.706 260.482C532.895 265.204 541.364 259.32 542.222 258.592C539.535 258.576 539.548 258.941 536.706 260.482ZM529.254 261.007C527.966 259.923 526.076 261.075 527.861 261.717C530.354 263.039 531.116 262.149 529.254 261.007ZM520.73 233.319C520.727 236.642 511.662 237.846 513.24 241.222C511.644 241.994 510.167 238.381 509.179 241.222C509.003 243.609 508.231 245.771 510.782 246.401C510.767 251.198 515.09 248.943 518.092 250.021C524.084 253.974 522.376 242.315 526.258 242.152C527.413 240.329 524.451 240.855 524.936 237.936C524.124 236.021 526.014 235.212 527.111 233.85C525.922 232.068 522.722 228.748 520.73 233.319ZM626.102 303.819C626.713 305.697 632.174 309.56 628.708 313.748C632.791 315.438 627.207 318.084 631.67 316.871C638.524 306.203 637.94 311.45 631.596 308.6C628.356 307.837 630.129 304.526 626.102 303.819ZM626.318 315.873C623.671 320.376 617.182 324.122 614.304 328.489C620.493 332.433 622.232 325.271 625.997 321.812C631.392 316.843 627.862 318.449 626.318 315.873ZM617.908 328.628C616.654 327.964 616.41 329.2 616.209 330.466C615.558 332.186 619.888 329.067 617.908 328.628ZM575.504 319.922C570.961 325.537 582.74 327.362 582.03 319.224C580.717 319.521 577.415 322.242 575.504 319.922ZM557.745 248.628C555.052 249.03 555.243 242.087 551.111 244.644C546.713 245.558 552.553 246.244 552.68 246.704C557.124 247.356 548.924 248.242 557.745 251.022C563.381 252.408 565.333 255.444 561.596 257.597C564.407 257.22 570.636 261.748 572.792 257.396C574.299 254.231 586.505 264.262 584.559 260.852C578.382 254.734 566.708 240.116 557.745 248.628ZM538.983 241.988C536.629 242.982 528.016 238.872 529.52 245.132C529.588 247.288 524.563 251.883 528.544 252.782C529.393 253.875 526.555 258.465 530.097 257.372C531.209 257.121 530.23 257.041 530.23 256.133C531.175 252.643 530.227 247.665 532.939 254.067C533.64 256.303 535.684 254.135 536.135 253.693C533.745 253.134 535.629 252.56 534.27 250.179C531.876 247.529 535.286 248.718 536.002 246.621C541.416 244.511 530.792 248.038 530.761 246.831C529.371 242.488 533.161 243.464 537.114 243.477C541.345 243.962 543.794 236.938 538.983 241.988ZM544.98 238.368C542.503 238.68 542.08 244.159 544.517 245.107C545.258 243.196 544.418 240.601 544.98 238.368ZM540.879 249.271C538.294 247.93 537.466 251.399 540.193 251.195C541.938 251.195 543.909 250.426 540.879 249.271ZM544.137 248.715C542.176 251.47 544.706 251.541 546.889 249.996C549.066 249.919 552.702 252.313 549.097 249.057C547.26 247.902 546.429 247.989 544.137 248.715ZM511.514 206.471C505.726 205.467 509.333 212.827 511.82 207.749C512.589 206.974 512.511 205.655 511.514 206.471ZM530.823 208.778C529.371 208.58 529.387 212.907 529.754 213.729C528.519 211.888 527.83 215.409 529.362 216.02C534.844 221.274 532.642 216.252 536.564 219.906C536.126 218.262 535.675 216.709 533.25 216.984C528.488 215.69 537.472 208.268 530.823 208.778ZM539.307 226.626C538.813 226.842 536.416 227.679 535.953 228.532C536.87 225.313 531.104 230.042 533.037 230.799C535.981 226.614 535.919 230.27 537.404 232.581C540.913 233.238 537.991 230.965 539.668 229.952C539.826 229.566 540.437 232.497 540.672 231.197C542.111 229.665 538.893 222.83 539.307 226.626ZM535.205 222.559C532.824 216.104 527.083 224.501 533.859 222.778C533.643 223.099 531.07 225.002 532.679 225.733C534.529 229.248 538.686 217.166 535.205 222.559ZM537.225 220.125C539.749 224.619 536.046 220.06 537.908 224.495C538.538 225.73 538.078 223.559 538.201 223.164C538.831 222.756 540.86 219.717 537.225 220.125ZM528 222.429C527.475 224.044 525.273 226.7 524.081 227.834C525.424 227.704 530.437 223.695 528 222.429ZM587.042 249.623C587.434 252.186 584.207 252.581 582.351 252.149C577.866 255.722 594.522 252.229 587.042 249.623ZM591.675 251.618C592.2 252.795 593.432 254.172 594.76 254.274C595.835 254.595 590.754 248.878 591.675 251.618ZM531.447 195.779C529.161 197.233 528.13 197.125 529.041 198.966C530.888 207.116 534.569 194.605 531.447 195.779ZM570.584 124.133C569.611 128.818 569.493 132.592 569.623 137.78C569.373 141.731 567.381 147.577 571.581 146.647C574.138 149.164 569.614 141.449 570.729 140.77C570.982 134.272 576.143 142.802 573.901 137.95C571.535 135.124 572.406 121.983 570.584 124.133ZM569.512 149.572C569.821 152.858 567.989 154.109 566.479 155.579C564.098 156.509 565.821 160.762 567.977 158.538C563.317 155.144 570.704 156.518 572.116 157.574C571.411 155.039 576.322 155.798 576.504 154.418C576.118 150.854 575.028 153.288 572.613 152.129C571.683 151.963 570.142 147.963 569.512 149.572ZM566.319 160.462C563.777 177.399 559.685 164.946 558.378 172.566C558.051 174.867 556.392 172.109 554.178 173.285C551.985 173.668 551.775 176.108 549.363 176.222C548.226 177.201 544.885 182.393 548.186 179.564C547.238 183.95 549.644 185.475 551.29 179.712C551.614 177.631 548.372 178.668 549.974 177.171C551.568 176.581 556.003 175.469 557.6 175.676C558.106 177.411 557.575 178.56 559.898 177.072C560.386 175.052 558.937 175.562 562.146 175.407C565.268 173.474 565.16 175.917 567.949 174.088C566.807 170.163 568.928 167.216 569.527 163.205C567.992 159.949 569.923 158.328 566.319 160.462ZM556.337 175.429C551.905 174.357 549.854 181.068 553.878 179.703C555.28 177.303 555.321 178.712 557.217 177.473C558.536 175.861 557.347 174.471 556.337 175.429ZM656.273 101.67C650.016 100.666 657.542 104.15 659.321 103.86C662.394 103.409 657.743 102.306 656.273 101.67ZM636.958 75.0631C632.066 78.8836 643.95 77.2745 644.843 76.7309C644.67 74.3065 638.323 75.7642 636.958 75.0631ZM576.699 52.6224C578.784 58.7808 594 52.851 581.22 53.1722C581.301 51.9584 576.943 50.7014 576.699 52.6224ZM566.214 56.0321C564.595 57.6165 570.161 62.1071 572.767 61.6376C571.998 59.9143 568.36 55.3434 566.214 56.0321ZM575.76 51.1554C572.082 48.5518 569.886 47.0385 566.424 48.6661C559.919 42.8289 557.325 54.948 564.58 53.6447C568.715 50.6613 572.727 56.1093 575.76 51.1554ZM483.143 15.5795C466.385 20.5766 485.345 28.551 492.381 26.9357C490.636 25.6571 493.323 23.1153 491.776 22.2506C489.191 20.9596 488.993 22.7818 490.17 21.2221C488.659 21.8491 484.907 18.6957 488.097 18.0657C488.913 17.6271 482.266 13.0686 483.143 15.5795ZM496.553 25.6386C492.653 27.8036 488.542 34.2708 496.124 31.0187C504.775 33.9311 502.721 27.5133 496.482 26.9018C499.528 25.966 499.052 25.5799 496.553 25.6386ZM414.11 9.26977C412.245 9.93997 412.896 10.2673 411.683 11.2309C410.086 14.6653 426.513 7.37346 414.11 9.26977ZM418.246 13.9519C414.799 15.8976 419.731 17.8248 421.634 15.876C423.712 14.409 421.643 11.8085 418.246 13.9519ZM408.502 13.4701C405.824 14.619 412.408 15.5579 413.446 14.4646C416.436 13.1798 409.033 12.9821 408.502 13.4701ZM391.972 15.4868C394.146 14.9649 401.034 15.5177 395.02 17.0342C392.454 17.3059 395.261 17.7074 397.08 17.6302C399.128 15.7308 400.172 15.0452 403.554 14.6931C405.679 11.4039 382.034 15.1903 391.972 15.4868ZM405.611 15.9625C404.082 15.9625 400.397 16.8087 403.498 17.1083C407.64 18.0039 410.117 16.3701 405.611 15.9625ZM416.42 16.611C412.387 14.5572 407.998 18.6988 414.011 17.9576C414.919 17.8063 414.867 17.5345 414.28 17.309C413.687 17.0836 417.702 17.0341 416.42 16.611ZM425.565 13.921C418.619 16.0211 433.33 15.7771 429.148 11.651C427.536 11.6633 427.675 13.5133 425.565 13.921ZM294.59 109.453C290.674 116.35 297.036 108.687 297.2 111.275C297.113 112.989 295.517 112.739 296.02 114.419C296.527 116.099 296.147 115.957 298.883 116.563C300.65 116.612 300.758 120.411 300.483 121.14C297.901 120.55 296.588 119.645 298.336 123.07C298.843 124.213 298 124.855 296.403 125.606C293.386 127.922 302.157 125.556 301.196 127.178C295.89 130.492 289.534 133.917 303.009 130.501C307.907 130.103 313.862 127.595 309.316 128.036C307.651 127.922 313.016 121.915 307.379 121.998C304.936 118.388 313.782 123.132 306.539 118.101C303.531 115.584 302.558 112.131 299.476 112.918C303.188 108.925 304.779 106.309 298.256 106.88C303.361 101.633 293.277 103.953 294.59 109.453ZM290.34 114.92C285.007 117.588 292.268 116.309 287.567 118.209C281.816 122.601 289.361 119.84 286.054 123.496C280.692 131.032 294.371 125.634 293.287 121.995C292.734 118.746 295.983 114.546 290.34 114.92ZM324.888 152.426C325.089 153.881 322.5 155.184 324.851 156.509C325.407 157.923 326.114 149.399 324.888 152.426ZM324.357 157.939C321.024 158.847 322.389 164.829 325.104 162.954C326.611 161.92 327.621 155.9 324.357 157.939ZM352.31 172.615C347.915 173.251 357.419 174.647 357.712 173.86C358.691 173.137 354.086 172.22 352.31 172.615ZM367.499 173.461C365.303 172.989 365.899 175.654 368.145 175.259C371.391 174.36 372.049 172.699 367.499 173.461ZM312.871 161.092C311.086 161.321 310.947 161.926 312.336 162.29C314.245 162.859 315.545 160.558 312.871 161.092ZM204.84 128.583C203.632 131.529 191.547 140.149 201.949 139.64C206.603 140.538 206.229 141.236 207.301 140.937C209.312 140.344 208.107 145.406 210.081 141.385C210.776 131.128 201.776 137.824 204.84 128.583ZM62.471 125.396C61.9367 126.866 67.3261 133.731 65.6089 128.849C65.5193 126.322 64.6329 123.969 62.471 125.396ZM70.2817 133.5C70.362 134.893 79.927 140.847 78.3024 136.82C77.0454 135.436 70.6801 133.691 70.2817 133.5ZM26.7994 116.977C24.0383 115.161 21.6355 121.319 24.7919 118.972C25.3663 117.993 30.1009 116.825 26.7994 116.977ZM26.3484 115.262C23.9734 116.927 28.149 115.225 28.4332 115.262C28.4332 115.262 27.2565 114.71 26.3484 115.262ZM1.65933 111.3C-2.99497 111.396 3.62359 113.172 3.58653 111.924C2.83603 110.932 3.66374 110.247 1.65933 111.3ZM396.423 273.598C394.783 277.15 385.023 276.081 389.718 281.903C391.429 284.958 388.294 284.627 387.503 288.213C387.154 291.051 389.579 297.577 392.426 295.919C398.776 294.859 397.38 275.859 400.558 274.667C400.265 270.189 397.695 264.907 396.423 273.598ZM398.421 69.3093C394.202 70.6034 397.609 72.5677 400.506 70.73C402.754 69.9301 400.262 68.8831 398.421 69.3093ZM433.364 35.3703C430.72 36.2505 417.832 40.4724 412.967 43.8018C404.592 50.0806 410.024 49.7718 405.478 55.2939C397.93 60.8871 411.395 66.8324 413.755 64.2628C399.283 47.3041 437.876 40.5126 433.364 35.3703ZM415.679 65.2233C413.233 64.8774 419.512 70.5571 418.175 67.3482C417.708 65.4889 416.393 65.1245 415.679 65.2233ZM439.105 51.7082C435.964 49.8305 437.271 53.4409 439.822 53.6354C441.208 53.901 440.106 52.1746 439.105 51.7082ZM193.588 135.291C192.004 134.497 190.454 133.864 189.419 133.864C187.13 134.3 195.265 137.845 193.588 135.291ZM189.811 141.968C187.282 145.125 195.309 144.612 191.754 143.676C190.722 143.494 189.74 143.065 189.811 141.968ZM657.039 96.2067C652.808 95.6477 653.228 96.5032 652.811 99.6936C648.842 98.242 643.391 95.0362 640.939 93.4147C636.433 100.657 632.405 93.8224 638.372 103.329C626.414 103.804 623.961 111.09 612.157 108.805C599.964 115 608.374 114.673 607.988 115.926C604.646 127.511 595.399 142.036 594.559 121.906C595.801 110.562 600.292 116.696 607.821 107.758C612.534 104.379 608.074 102.668 612.374 102.18C609.761 102.325 608.973 101.201 606.805 103.925C602.25 108.437 606.153 101.726 603.547 102.68C601.45 103.211 589.528 106.402 592.956 110.5C588.364 113.44 587.308 106.284 581.403 109.75C571.489 104.873 566.587 114.867 558.4 120.164C556.423 122.054 556.099 121.955 557.705 122.255C561.028 122.162 558.814 126.344 562.52 125.887C572.258 117.987 566.547 141.348 562.304 146.959C557.554 157.809 549.764 151.262 546.898 158.961C539.282 164.313 548.578 168.995 544.548 175.506C539.085 180.225 541.772 169.724 541.228 167.979C538.587 167.322 538.504 165.706 538.77 163.896C536.598 161.713 533.207 164.644 533.044 160.66C529.754 161.265 520.483 165.536 527.426 168.927C528.723 169.32 533.022 167.291 532.673 169.326C533.13 169.267 525.69 174.447 528.232 175.256C532.182 178.063 529.362 182.276 531.709 185.868C532.376 197.474 517.759 200.597 511.814 205.189C511.048 200.105 501.446 205.26 503.095 209.229C511.335 213.506 508.731 227.302 501.594 226.91C502.61 221.864 493.907 221.363 493.731 218.942C488.82 222.049 491.044 229.285 495.874 232.787C503.756 243.016 495 244.113 493.255 232.988C485.685 229.733 491.39 213.837 485.738 212.364C482.757 216.104 481.093 213.772 482.266 210.297C481.296 208.339 477.022 199.784 474.724 201.952C468.334 202.03 462.858 210.958 457.117 214.609C454.01 216.511 455.854 231.568 449.875 228.405C442.234 220.838 442.484 198.759 440.819 203.197C439.003 206.959 431.841 202.468 437.857 200.411C434.596 201.251 431.523 198.595 430.745 195.544C421.226 198.11 411.318 194.713 403.267 190.361C401.324 187.906 399.363 182.041 396.009 187.01C396.592 188.811 402.877 201.128 401.716 193.901C401.759 199.38 407.09 199.988 410.45 196.143C412.05 193.533 411.578 194.636 412.056 197.122C414.107 198.604 416.535 199.593 417.992 201.591C419.117 202.178 415.586 207.771 415.052 205.127C414.181 205.331 415.256 209.414 413.143 209.328C405.24 213.966 398.044 218.303 388.93 220.536C386.357 218.093 387.46 212.221 384.31 209.179C379.825 202.416 375.508 194.833 372.113 187.047C371.848 186.201 371.15 188.425 370.6 188.857C369.479 190.256 368.815 184.901 368.157 185.936C367.107 190.235 372.512 194.543 373.275 199.117C376.388 204.645 377.157 208.818 380.125 214.241C381.916 217.592 387.818 218.312 386.808 223.158C396.898 230.499 411.365 210.853 396.296 236.293C371.947 262.415 384.029 249.289 381.663 276.591C372.11 281.798 372.441 282.499 373.157 292.876C364.763 297.463 370.362 299.047 363.737 306.756C359.821 312.822 346.387 318.486 341.525 312.219C341.062 304.162 334.169 299.541 334.481 290.946C331.701 284.825 328.267 279.618 330.827 272.73C335.03 266.137 330.784 255.704 326.281 250.268C322.627 247.671 326.898 241.692 325.283 238.594C324.088 234.999 319.872 238.535 318.044 235.638C315.558 232.942 317.043 232.865 312.197 233.214C306.249 235.623 300.857 234.872 295.239 236.636C285.587 236.256 280.927 223.887 275.948 217.194C280.306 212.564 275.636 206.539 276.893 201.918C280.553 196.724 283.107 188.882 289.448 186.377C290.053 182.927 289.917 177.659 294.568 176.646C296.415 176.009 296.113 169.579 298.506 172.51C303.516 175.311 309.847 169.199 315.141 168.742C318.624 170.438 318.399 167.658 321.935 168.742C324.428 169.221 326.42 166.574 328.177 169.039C328.155 169.434 326.395 170.938 327.516 171.828C329.968 174.379 323.733 175.478 327.445 177.177C357.094 193.431 335.911 177.47 350.355 179.861C354.278 183.045 360.936 184.033 365.458 182.47C372.827 187.233 374.254 174.515 374.498 169.786C374.553 168.736 372.839 170.175 372.234 169.286C370.529 168.785 371.638 171.383 369.291 170.898C363.805 167.513 365.575 171.37 361.017 169.919C357.363 169.27 357.273 163.127 356.9 162.13C353.265 160.777 360.989 159.576 362.19 159.041C364.435 158.532 359.858 157.982 362.53 157.645C366.653 158.417 366.449 154.798 370.609 155.286C377.864 159.597 392.25 159.091 379.773 149.393C375.115 147.281 374.779 146.552 378.917 143.781C379.825 143.451 377.867 142.753 377.595 142.373C377.191 141.866 380.6 142.015 380.217 140.86C379.597 138.957 368.444 142.691 373.247 145.044C376.968 146.28 372.055 147.521 370.344 148.3C368.741 148.689 370.087 146.064 368.379 146.539C366.792 145.761 367.564 146.196 368.79 145.359C370.041 144.686 370.94 142.95 368.611 143.417C367.703 143.371 364.917 142.28 367.292 142.537C369.88 140.965 362.993 141.9 362.817 144.362C362.518 148.958 356.109 153.439 361.301 157.509C360.121 157.794 357.712 158.106 357.005 159.755C356.443 158.112 348.814 155.947 349.268 160.027C350.154 161.216 349.657 164.499 351.541 165.333C350.979 165.901 350.723 171.608 348.922 169.218C346.254 167.359 347.501 163.127 344.428 160.277C343.471 156.37 344.382 153.819 339.181 151.434C335.367 151.126 331.698 138.994 330.731 147.951C332.146 149.878 333.582 154.106 336.432 155.298C339.722 155.66 335.586 155.758 338.866 157.414C340.361 157.8 343.52 162 341.275 160.477C339.83 158.958 339.805 159.659 339.404 160.703C340.42 164.616 337.517 165.181 335.873 166.827C336.747 172.634 334.323 167.797 331.327 167.226C331.642 165.956 340.648 166.095 337.155 161.423C332.26 157.241 328.22 152.713 324.134 148.3C320.107 150.687 319.452 151.283 314.983 151.385C313.525 156.864 311.064 155.295 307.926 161.2C307.274 165.929 306.345 168.875 300.65 169.372C293.722 171.948 298.525 166.571 290.751 168.776C291.891 163.915 291.134 156.901 291.557 151.539C293.809 147.018 310.903 158.553 305.514 142.923C302.333 139.664 294.368 134.266 302.898 136.446C307.521 135.1 301.221 132.774 306.799 134.454C310.001 134.284 307.336 132.555 310.866 131.814C309.859 127.907 314.26 129.367 315.681 127.731C314.989 122.335 317.865 122.82 320.972 121.257C329.477 122.307 317.794 109.58 325.249 108.153C331.874 105.722 316.648 125.405 336.059 119.608C353.722 121.43 342.325 104.039 350.71 110.889C353.126 112.631 353.648 106.887 353.067 106.905C352.387 107.711 349.345 103.687 350.179 103.866C354.12 103.82 370.736 101.507 358.364 101.028C341.763 105.179 347.412 91.5154 354.404 85.7338C344.558 76.6228 349.731 89.7982 343.545 92.1608C337.007 95.552 342.538 100.555 342.961 103.267C337.693 103.841 334.267 123.558 331.506 111.785C323.229 94.7551 330.185 108.258 318.671 107.754C314.575 101.868 318.77 93.8132 324.934 91.0675C330.966 86.6572 332.856 78.899 338.088 72.7345C339.342 69.3526 359.355 57.1316 355.365 62.7186C350.874 68.6669 356.659 61.5079 359.16 62.0237C360.096 61.3998 366.604 64.164 364.034 64.9114C360.714 65.9862 359.04 65.3561 363.441 67.4069C375.217 64.8249 359.256 69.3742 373.123 70.6405C393.047 77.2251 380.063 85.7863 367.777 78.0126C372.842 80.3259 369.779 87.6146 373.336 90.2707C376.215 91.5771 377.039 91.1941 378.151 90.1194C377.957 89.0786 374.729 87.9605 376.657 86.7807C381.756 88.4763 380.15 84.449 384.251 82.0461C392.136 82.5496 389.606 79.2264 387.939 75.372C389.223 72.1044 394.038 75.4554 391.101 75.8723C388.853 75.6747 390.403 79.2109 392.435 79.0102C400.07 73.593 407.096 73.3213 415.92 72.089C418.273 71.6905 415.759 72.9352 416.828 73.2811C418.116 74.1335 422.044 72.3484 421.004 71.042C414.604 62.7804 434.729 72.8951 434.8 76.2213C435.884 67.342 425.985 64.9454 436.409 54.2562C446.477 52.4155 435.998 67.2216 443.203 76.4684C443.806 82.5928 427.638 79.3221 439.664 82.9449C448.071 82.5341 442.956 64.2412 451.65 77.7655C449.133 67.5211 439.575 73.8432 446.357 56.0475C445.844 60.2911 447.549 64.9176 450.369 62.0268C448.176 61.3782 447.533 60.779 449.723 59.5869C452.339 57.1347 465.771 65.4457 458.711 57.8419C450.125 51.6372 460.82 51.9955 467.964 52.0171C471.66 47.5574 462.695 42.1556 477.751 42.307C479.592 40.8245 496.069 42.7239 494.49 37.421C494.966 34.7866 501.724 35.0151 501.714 35.9262C501.016 36.1764 498.932 37.2203 502.193 37.9214C508.79 38.4835 496.393 40.1265 505.936 40.8585C509.25 40.8585 507.273 40.5589 506.739 39.4656C507.666 37.3685 517.419 40.9944 517.543 44.4967C517.552 49.3456 505.488 51.245 503.855 56.4027C502.635 57.3014 515.782 53.8609 518.722 55.9024C532.741 55.4854 520.427 58.9074 528.028 59.241C534.362 60.4609 545.638 51.5631 546.481 62.0793C543.269 66.5823 549.026 73.312 551.883 66.5112C555.639 67.7435 560.262 68.7195 564.987 68.4044C567.628 65.6588 563.156 60.3497 572.533 63.92C587.095 67.9412 583.314 72.5213 599.436 73.4819C606.753 78.7569 596.24 79.3932 612.917 80.0047C617.192 80.0572 615.752 79.5105 617.034 80.4062C627.816 88.5195 614.097 74.8006 630.027 80.1591C635.194 81.4315 662.802 96.9418 657.039 96.2067ZM407.476 146.833C410.852 143.97 406.926 148.741 405.265 141.434C403.152 142.154 399.082 140.495 397.615 143.676C396.284 146.833 391.407 147.398 394.78 149.85C395.169 152.494 397.479 156.901 400.292 157.225C398.257 159.44 395.104 168.381 400.879 168.779C408.804 172.223 408.634 166.095 405.534 160.511C405.503 157.889 410.092 159.251 406.652 155.579C405.802 155.082 405.425 157.225 405.425 157.225C404.752 158.109 405.762 152.383 404.842 153.139C403.501 153.451 399.928 146.993 402.485 148.256C401.009 144.532 405.314 146.657 407.476 146.833ZM207.919 70.0846C207.236 72.0457 210.655 71.8604 211.548 71.286C212.937 68.7195 208.938 67.166 207.919 70.0846ZM472.34 15.1656C468.303 14.3256 471.716 18.1429 473.995 17.1577C476.565 15.91 476.031 15.8111 477.797 15.0637C480.679 13.6677 473.396 14.3781 472.34 15.1656Z" fill="#F4F4F4"/>
</svg>
