<svg width="278" height="249" viewBox="0 0 278 249" fill="none" xmlns="http://www.w3.org/2000/svg">
<path d="M277.279 255.834L213.563 145.873C212.488 144.11 210.534 143.089 208.384 142.996C206.234 143.089 204.279 144.295 203.302 146.058L181.217 189.393L115.84 75.5346V55.0271H179.555C181.901 55.0271 184.051 53.7279 184.93 51.5937C185.81 49.5522 185.321 47.1395 183.66 45.562L164.604 27.4671L183.66 9.37223C185.321 7.79473 185.81 5.47487 184.93 3.3406C184.051 1.29912 181.901 0 179.555 0H110.074C106.849 0 104.308 2.50545 104.308 5.47487V75.5346L0.721148 255.834C-0.256088 257.504 -0.256088 259.639 0.818871 261.309C1.89383 262.979 3.75058 264 5.80277 264H214.247H272.197C274.249 264 276.106 262.979 277.181 261.309C278.256 259.546 278.256 257.504 277.279 255.834ZM110.074 88.433L139.684 140.027L128.055 151.069L114.667 134.181C112.517 131.397 107.533 131.397 105.383 134.181L91.995 151.069L80.3659 140.027L110.074 88.433Z" fill="#003E7C" fill-opacity="0.1"/>
</svg>
